#N canvas 407 432 617 212 12;
#X obj 17 105 print rcvOSC;
#X text 194 163 for more info \, get help on:;
#X obj 16 52 dumpOSC 7777;
#X obj 168 88 unpack s f f f f f f;
#X floatatom 178 131 5 0 0 0 - - -;
#X floatatom 229 130 5 0 0 0 - - -;
#X floatatom 275 129 5 0 0 0 - - -;
#X floatatom 326 128 5 0 0 0 - - -;
#X obj 352 74 osc~;
#X obj 394 108 dac~;
#X text 95 20 EEG;
#X connect 2 0 3 0;
#X connect 3 1 4 0;
#X connect 3 2 5 0;
#X connect 3 3 6 0;
#X connect 3 4 7 0;
#X connect 4 0 8 0;
#X connect 8 0 9 0;
#X connect 8 0 9 1;
